<mxfile host="app.diagrams.net" modified="2021-02-04T09:49:39.373Z" agent="5.0 (Windows NT 10.0; Win64; x64) AppleWebKit/537.36 (KHTML, like Gecko) Chrome/88.0.4324.96 Safari/537.36 Edg/88.0.705.56" etag="U-w3sb5jQngU2C5AxVNN" version="14.2.9" type="github">
  <diagram id="C5RBs43oDa-KdzZeNtuy" name="Page-1">
    <mxGraphModel dx="2320" dy="3916" grid="1" gridSize="10" guides="1" tooltips="1" connect="1" arrows="1" fold="1" page="1" pageScale="1" pageWidth="827" pageHeight="1169" math="0" shadow="0">
      <root>
        <mxCell id="WIyWlLk6GJQsqaUBKTNV-0" />
        <mxCell id="WIyWlLk6GJQsqaUBKTNV-1" parent="WIyWlLk6GJQsqaUBKTNV-0" />
        <mxCell id="-S1vWL-iVzR-hxPpNCkm-41" value="项目" style="html=1;overflow=block;blockSpacing=1;whiteSpace=wrap;swimlane;childLayout=stackLayout;horizontal=1;horizontalStack=0;resizeParent=1;resizeParentMax=0;resizeLast=0;collapsible=0;fontStyle=0;marginBottom=0;swimlaneFillColor=#ffffff;startSize=25;whiteSpace=wrap;fontSize=27;fontColor=#333333;whiteSpace=wrap;align=left;spacing=0;strokeColor=#5e5e5e;strokeOpacity=100;rounded=1;absoluteArcSize=1;arcSize=9;strokeWidth=2;" vertex="1" parent="WIyWlLk6GJQsqaUBKTNV-1">
          <mxGeometry x="1317.5" y="877.25" width="375" height="575.25" as="geometry" />
        </mxCell>
        <mxCell id="-S1vWL-iVzR-hxPpNCkm-42" value="&lt;div style=&quot;display: flex; justify-content: center; text-align: center; align-items: baseline; font-size: 0; line-height: 1;&quot;&gt;&lt;span style=&quot;font-size:11px;&quot;&gt;&lt;span style=&quot;font-size:27px;color:#333333;&quot;&gt;项目id Integer&#xa;&lt;/span&gt;&lt;/span&gt;&lt;/div&gt;&lt;div style=&quot;display: flex; justify-content: center; text-align: center; align-items: baseline; font-size: 0; line-height: 1;&quot;&gt;&lt;span style=&quot;font-size:11px;&quot;&gt;&lt;span style=&quot;font-size:27px;color:#333333;&quot;&gt;项目名称 Variable characters&#xa;&lt;/span&gt;&lt;/span&gt;&lt;/div&gt;&lt;div style=&quot;display: flex; justify-content: center; text-align: center; align-items: baseline; font-size: 0; line-height: 1;&quot;&gt;&lt;span style=&quot;font-size:11px;&quot;&gt;&lt;span style=&quot;font-size:11px;color:#333333;&quot;&gt;&lt;span style=&quot;font-size:26px;color:#333333;font-family: Liberation Serif;&quot;&gt;项目类型 &lt;/span&gt;&lt;span style=&quot;font-size:27px;color:#333333;&quot;&gt;Variable characters&#xa;&lt;/span&gt;&lt;/span&gt;&lt;/span&gt;&lt;/div&gt;&lt;div style=&quot;display: flex; justify-content: center; text-align: center; align-items: baseline; font-size: 0; line-height: 1;&quot;&gt;&lt;span style=&quot;font-size:11px;&quot;&gt;&lt;span style=&quot;font-size:27px;color:#333333;&quot;&gt;开始时间 Date&#xa;&lt;/span&gt;&lt;/span&gt;&lt;/div&gt;&lt;div style=&quot;display: flex; justify-content: center; text-align: center; align-items: baseline; font-size: 0; line-height: 1;&quot;&gt;&lt;span style=&quot;font-size:11px;&quot;&gt;&lt;span style=&quot;font-size:27px;color:#333333;&quot;&gt;结束时间 Date&#xa;&lt;/span&gt;&lt;/span&gt;&lt;/div&gt;&lt;div style=&quot;display: flex; justify-content: center; text-align: center; align-items: baseline; font-size: 0; line-height: 1;&quot;&gt;&lt;span style=&quot;font-size:11px;&quot;&gt;&lt;span style=&quot;font-size:27px;color:#333333;&quot;&gt;经费数量 Decimal&#xa;&lt;/span&gt;&lt;/span&gt;&lt;/div&gt;&lt;div style=&quot;display: flex; justify-content: center; text-align: center; align-items: baseline; font-size: 0; line-height: 1;&quot;&gt;&lt;span style=&quot;font-size:11px;&quot;&gt;&lt;span style=&quot;font-size:27px;color:#333333;&quot;&gt;审批状态 Integer&#xa;&lt;/span&gt;&lt;/span&gt;&lt;/div&gt;&lt;div style=&quot;display: flex; justify-content: center; text-align: center; align-items: baseline; font-size: 0; line-height: 1;&quot;&gt;&lt;span style=&quot;font-size:11px;&quot;&gt;&lt;span style=&quot;font-size:27px;color:#333333;&quot;&gt;审批时间 Date &amp; Time&lt;/span&gt;&lt;/span&gt;&lt;/div&gt;" style="part=1;html=1;resizeHeight=0;strokeColor=none;fillColor=none;align=left;verticalAlign=middle;spacingLeft=4;spacingRight=4;overflow=hidden;rotatable=0;points=[[0,0.5],[1,0.5]];portConstraint=eastwest;swimlaneFillColor=#ffffff;strokeOpacity=100;fontSize=27;fontColor=#333333;" vertex="1" parent="-S1vWL-iVzR-hxPpNCkm-41">
          <mxGeometry y="25" width="375" height="550.25" as="geometry" />
        </mxCell>
        <mxCell id="-S1vWL-iVzR-hxPpNCkm-43" value="项目类别" style="html=1;overflow=block;blockSpacing=1;whiteSpace=wrap;swimlane;childLayout=stackLayout;horizontal=1;horizontalStack=0;resizeParent=1;resizeParentMax=0;resizeLast=0;collapsible=0;fontStyle=0;marginBottom=0;swimlaneFillColor=#ffffff;startSize=25;whiteSpace=wrap;fontSize=27;fontColor=#333333;whiteSpace=wrap;align=left;spacing=0;strokeColor=#5e5e5e;strokeOpacity=100;rounded=1;absoluteArcSize=1;arcSize=9;strokeWidth=2;" vertex="1" parent="WIyWlLk6GJQsqaUBKTNV-1">
          <mxGeometry x="1280" y="1600" width="450" height="237.75" as="geometry" />
        </mxCell>
        <mxCell id="-S1vWL-iVzR-hxPpNCkm-44" value="&lt;div style=&quot;display: flex; justify-content: center; text-align: center; align-items: baseline; font-size: 0; line-height: 1;&quot;&gt;&lt;span style=&quot;font-size:11px;&quot;&gt;&lt;span style=&quot;font-size:27px;color:#333333;&quot;&gt;项目类别id Integer&#xa;&lt;/span&gt;&lt;/span&gt;&lt;/div&gt;&lt;div style=&quot;display: flex; justify-content: center; text-align: center; align-items: baseline; font-size: 0; line-height: 1;&quot;&gt;&lt;span style=&quot;font-size:11px;&quot;&gt;&lt;span style=&quot;font-size:27px;color:#333333;&quot;&gt;项目类别名称Variable characters&lt;/span&gt;&lt;/span&gt;&lt;/div&gt;" style="part=1;html=1;resizeHeight=0;strokeColor=none;fillColor=none;align=left;verticalAlign=middle;spacingLeft=4;spacingRight=4;overflow=hidden;rotatable=0;points=[[0,0.5],[1,0.5]];portConstraint=eastwest;swimlaneFillColor=#ffffff;strokeOpacity=100;fontSize=27;fontColor=#333333;" vertex="1" parent="-S1vWL-iVzR-hxPpNCkm-43">
          <mxGeometry y="25" width="450" height="212.75" as="geometry" />
        </mxCell>
        <mxCell id="-S1vWL-iVzR-hxPpNCkm-45" value="教师" style="html=1;overflow=block;blockSpacing=1;whiteSpace=wrap;swimlane;childLayout=stackLayout;horizontal=1;horizontalStack=0;resizeParent=1;resizeParentMax=0;resizeLast=0;collapsible=0;fontStyle=0;marginBottom=0;swimlaneFillColor=#ffffff;startSize=25;whiteSpace=wrap;fontSize=27;fontColor=#333333;whiteSpace=wrap;align=left;spacing=0;strokeColor=#5e5e5e;strokeOpacity=100;rounded=1;absoluteArcSize=1;arcSize=9;strokeWidth=2;" vertex="1" parent="WIyWlLk6GJQsqaUBKTNV-1">
          <mxGeometry x="145" y="-245" width="405" height="505.5" as="geometry" />
        </mxCell>
        <mxCell id="-S1vWL-iVzR-hxPpNCkm-46" value="&lt;div style=&quot;display: flex; justify-content: center; text-align: center; align-items: baseline; font-size: 0; line-height: 1;&quot;&gt;&lt;span style=&quot;font-size:11px;&quot;&gt;&lt;span style=&quot;font-size:27px;color:#333333;&quot;&gt;教师id Integer&#xa;&lt;/span&gt;&lt;/span&gt;&lt;/div&gt;&lt;div style=&quot;display: flex; justify-content: center; text-align: center; align-items: baseline; font-size: 0; line-height: 1;&quot;&gt;&lt;span style=&quot;font-size:11px;&quot;&gt;&lt;span style=&quot;font-size:27px;color:#333333;&quot;&gt;教师名称 Variable characters &#xa;&lt;/span&gt;&lt;/span&gt;&lt;/div&gt;&lt;div style=&quot;display: flex; justify-content: center; text-align: center; align-items: baseline; font-size: 0; line-height: 1;&quot;&gt;&lt;span style=&quot;font-size:11px;&quot;&gt;&lt;span style=&quot;font-size:27px;color:#333333;&quot;&gt;教师工号 Variable characters &#xa;&lt;/span&gt;&lt;/span&gt;&lt;/div&gt;&lt;div style=&quot;display: flex; justify-content: center; text-align: center; align-items: baseline; font-size: 0; line-height: 1;&quot;&gt;&lt;span style=&quot;font-size:11px;&quot;&gt;&lt;span style=&quot;font-size:27px;color:#333333;&quot;&gt;教师性别 Integer&#xa;&lt;/span&gt;&lt;/span&gt;&lt;/div&gt;&lt;div style=&quot;display: flex; justify-content: center; text-align: center; align-items: baseline; font-size: 0; line-height: 1;&quot;&gt;&lt;span style=&quot;font-size:11px;&quot;&gt;&lt;span style=&quot;font-size:27px;color:#333333;&quot;&gt;出生日期 Date&#xa;&lt;/span&gt;&lt;/span&gt;&lt;/div&gt;&lt;div style=&quot;display: flex; justify-content: center; text-align: center; align-items: baseline; font-size: 0; line-height: 1;&quot;&gt;&lt;span style=&quot;font-size:11px;&quot;&gt;&lt;span style=&quot;font-size:27px;color:#333333;&quot;&gt;教师邮件 Variable characters&#xa;&lt;/span&gt;&lt;/span&gt;&lt;/div&gt;&lt;div style=&quot;display: flex; justify-content: center; text-align: center; align-items: baseline; font-size: 0; line-height: 1;&quot;&gt;&lt;span style=&quot;font-size:11px;&quot;&gt;&lt;span style=&quot;font-size:27px;color:#333333;&quot;&gt;联系方式 Variahle characters &lt;/span&gt;&lt;/span&gt;&lt;/div&gt;" style="part=1;html=1;resizeHeight=0;strokeColor=none;fillColor=none;align=left;verticalAlign=middle;spacingLeft=4;spacingRight=4;overflow=hidden;rotatable=0;points=[[0,0.5],[1,0.5]];portConstraint=eastwest;swimlaneFillColor=#ffffff;strokeOpacity=100;fontSize=27;fontColor=#333333;" vertex="1" parent="-S1vWL-iVzR-hxPpNCkm-45">
          <mxGeometry y="25" width="405" height="480.5" as="geometry" />
        </mxCell>
        <mxCell id="-S1vWL-iVzR-hxPpNCkm-47" value="项目管理" style="html=1;overflow=block;blockSpacing=1;whiteSpace=wrap;swimlane;childLayout=stackLayout;horizontal=1;horizontalStack=0;resizeParent=1;resizeParentMax=0;resizeLast=0;collapsible=0;fontStyle=0;marginBottom=0;swimlaneFillColor=#ffffff;startSize=25;whiteSpace=wrap;fontSize=27;fontColor=#333333;whiteSpace=wrap;align=left;spacing=0;strokeColor=#5e5e5e;strokeOpacity=100;rounded=1;absoluteArcSize=1;arcSize=9;strokeWidth=2;" vertex="1" parent="WIyWlLk6GJQsqaUBKTNV-1">
          <mxGeometry x="1310" y="170" width="375" height="586.5" as="geometry" />
        </mxCell>
        <mxCell id="-S1vWL-iVzR-hxPpNCkm-48" value="&lt;div style=&quot;display: flex; justify-content: center; text-align: center; align-items: baseline; font-size: 0; line-height: 1;&quot;&gt;&lt;span style=&quot;font-size:11px;&quot;&gt;&lt;span style=&quot;font-size:27px;color:#333333;&quot;&gt;项且管理id&#xa;&lt;/span&gt;&lt;/span&gt;&lt;/div&gt;&lt;div style=&quot;display: flex; justify-content: center; text-align: center; align-items: baseline; font-size: 0; line-height: 1;&quot;&gt;&lt;span style=&quot;font-size:11px;&quot;&gt;&lt;span style=&quot;font-size:27px;color:#333333;&quot;&gt;是否为项目负责人Integer&#xa;&lt;/span&gt;&lt;/span&gt;&lt;/div&gt;&lt;div style=&quot;display: flex; justify-content: center; text-align: center; align-items: baseline; font-size: 0; line-height: 1;&quot;&gt;&lt;span style=&quot;font-size:11px;&quot;&gt;&lt;span style=&quot;font-size:27px;color:#333333;&quot;&gt;主要工作Variable characters &#xa;&lt;/span&gt;&lt;/span&gt;&lt;/div&gt;&lt;div style=&quot;display: flex; justify-content: center; text-align: center; align-items: baseline; font-size: 0; line-height: 1;&quot;&gt;&lt;span style=&quot;font-size:11px;&quot;&gt;&lt;span style=&quot;font-size:27px;color:#333333;&quot;&gt;分配经费Decimal&#xa;&lt;/span&gt;&lt;/span&gt;&lt;/div&gt;&lt;div style=&quot;display: flex; justify-content: center; text-align: center; align-items: baseline; font-size: 0; line-height: 1;&quot;&gt;&lt;span style=&quot;font-size:11px;&quot;&gt;&lt;span style=&quot;font-size:27px;color:#333333;&quot;&gt;审批状态Integer &#xa;&lt;/span&gt;&lt;/span&gt;&lt;/div&gt;&lt;div style=&quot;display: flex; justify-content: center; text-align: center; align-items: baseline; font-size: 0; line-height: 1;&quot;&gt;&lt;span style=&quot;font-size:11px;&quot;&gt;&lt;span style=&quot;font-size:27px;color:#333333;&quot;&gt;审批时间 Date &amp; Time&lt;/span&gt;&lt;/span&gt;&lt;/div&gt;" style="part=1;html=1;resizeHeight=0;strokeColor=none;fillColor=none;align=left;verticalAlign=middle;spacingLeft=4;spacingRight=4;overflow=hidden;rotatable=0;points=[[0,0.5],[1,0.5]];portConstraint=eastwest;swimlaneFillColor=#ffffff;strokeOpacity=100;fontSize=27;fontColor=#333333;" vertex="1" parent="-S1vWL-iVzR-hxPpNCkm-47">
          <mxGeometry y="25" width="375" height="561.5" as="geometry" />
        </mxCell>
        <mxCell id="-S1vWL-iVzR-hxPpNCkm-49" value="研究生" style="html=1;overflow=block;blockSpacing=1;whiteSpace=wrap;swimlane;childLayout=stackLayout;horizontal=1;horizontalStack=0;resizeParent=1;resizeParentMax=0;resizeLast=0;collapsible=0;fontStyle=0;marginBottom=0;swimlaneFillColor=#ffffff;startSize=25;whiteSpace=wrap;fontSize=26;fontFamily=Liberation Serif;fontColor=#333333;whiteSpace=wrap;align=left;spacing=0;strokeColor=#5e5e5e;strokeOpacity=100;rounded=1;absoluteArcSize=1;arcSize=9;strokeWidth=2;" vertex="1" parent="WIyWlLk6GJQsqaUBKTNV-1">
          <mxGeometry x="160" y="930" width="375" height="469.75" as="geometry" />
        </mxCell>
        <mxCell id="-S1vWL-iVzR-hxPpNCkm-50" value="&lt;div style=&quot;display: flex; justify-content: center; text-align: center; align-items: baseline; font-size: 0; line-height: 1;&quot;&gt;&lt;span style=&quot;font-size:11px;&quot;&gt;&lt;span style=&quot;font-size:27px;color:#333333;&quot;&gt;学生id integer&#xa;&lt;/span&gt;&lt;/span&gt;&lt;/div&gt;&lt;div style=&quot;display: flex; justify-content: center; text-align: center; align-items: baseline; font-size: 0; line-height: 1;&quot;&gt;&lt;span style=&quot;font-size:11px;&quot;&gt;&lt;span style=&quot;font-size:27px;color:#333333;&quot;&gt;学生姓名 Variable characters&#xa;&lt;/span&gt;&lt;/span&gt;&lt;/div&gt;&lt;div style=&quot;display: flex; justify-content: center; text-align: center; align-items: baseline; font-size: 0; line-height: 1;&quot;&gt;&lt;span style=&quot;font-size:11px;&quot;&gt;&lt;span style=&quot;font-size:27px;color:#333333;&quot;&gt;学生卡号 Variable characters &#xa;&lt;/span&gt;&lt;/span&gt;&lt;/div&gt;&lt;div style=&quot;display: flex; justify-content: center; text-align: center; align-items: baseline; font-size: 0; line-height: 1;&quot;&gt;&lt;span style=&quot;font-size:11px;&quot;&gt;&lt;span style=&quot;font-size:27px;color:#333333;&quot;&gt;出生日期 Date&#xa;&lt;/span&gt;&lt;/span&gt;&lt;/div&gt;&lt;div style=&quot;display: flex; justify-content: center; text-align: center; align-items: baseline; font-size: 0; line-height: 1;&quot;&gt;&lt;span style=&quot;font-size:11px;&quot;&gt;&lt;span style=&quot;font-size:27px;color:#333333;&quot;&gt;性别 Integer&#xa;&lt;/span&gt;&lt;/span&gt;&lt;/div&gt;&lt;div style=&quot;display: flex; justify-content: center; text-align: center; align-items: baseline; font-size: 0; line-height: 1;&quot;&gt;&lt;span style=&quot;font-size:11px;&quot;&gt;&lt;span style=&quot;font-size:27px;color:#333333;&quot;&gt;入学年份 Date&#xa;&lt;/span&gt;&lt;/span&gt;&lt;/div&gt;&lt;div style=&quot;display: flex; justify-content: center; text-align: center; align-items: baseline; font-size: 0; line-height: 1;&quot;&gt;&lt;span style=&quot;font-size:11px;&quot;&gt;&lt;span style=&quot;font-size:27px;color:#333333;&quot;&gt;电子邮件 Variable characters&#xa;&lt;/span&gt;&lt;/span&gt;&lt;/div&gt;&lt;div style=&quot;display: flex; justify-content: center; text-align: center; align-items: baseline; font-size: 0; line-height: 1;&quot;&gt;&lt;span style=&quot;font-size:11px;&quot;&gt;&lt;span style=&quot;font-size:27px;color:#333333;&quot;&gt;联系方式 Variable characters&lt;/span&gt;&lt;/span&gt;&lt;/div&gt;" style="part=1;html=1;resizeHeight=0;strokeColor=none;fillColor=none;align=left;verticalAlign=middle;spacingLeft=4;spacingRight=4;overflow=hidden;rotatable=0;points=[[0,0.5],[1,0.5]];portConstraint=eastwest;swimlaneFillColor=#ffffff;strokeOpacity=100;fontSize=27;fontColor=#333333;" vertex="1" parent="-S1vWL-iVzR-hxPpNCkm-49">
          <mxGeometry y="25" width="375" height="444.75" as="geometry" />
        </mxCell>
        <UserObject label="" lucidchartObjectId="4mY--hRxHhUX" id="-S1vWL-iVzR-hxPpNCkm-51">
          <mxCell style="html=1;jettySize=18;whiteSpace=wrap;overflow=block;blockSpacing=1;fontSize=11;strokeColor=#5E5E5E;strokeWidth=3;rounded=1;arcSize=32;edgeStyle=orthogonalEdgeStyle;startArrow=none;;endArrow=ERmany;endSize=10;;exitX=0.5;exitY=1.003;exitPerimeter=0;entryX=0.5;entryY=-0.002;entryPerimeter=0;" edge="1" parent="WIyWlLk6GJQsqaUBKTNV-1" source="-S1vWL-iVzR-hxPpNCkm-62" target="-S1vWL-iVzR-hxPpNCkm-49">
            <mxGeometry width="100" height="100" relative="1" as="geometry">
              <Array as="points" />
            </mxGeometry>
          </mxCell>
        </UserObject>
        <UserObject label="" lucidchartObjectId="yQ19ZfkQinWv" id="-S1vWL-iVzR-hxPpNCkm-52">
          <mxCell style="html=1;jettySize=18;whiteSpace=wrap;overflow=block;blockSpacing=1;fontSize=11;strokeColor=#5E5E5E;strokeWidth=3;rounded=1;arcSize=32;edgeStyle=orthogonalEdgeStyle;startArrow=none;;endArrow=ERmany;endSize=10;;exitX=0.5;exitY=1.003;exitPerimeter=0;entryX=0.5;entryY=-0.003;entryPerimeter=0;" edge="1" parent="WIyWlLk6GJQsqaUBKTNV-1" source="-S1vWL-iVzR-hxPpNCkm-45" target="-S1vWL-iVzR-hxPpNCkm-62">
            <mxGeometry width="100" height="100" relative="1" as="geometry">
              <Array as="points" />
            </mxGeometry>
          </mxCell>
        </UserObject>
        <mxCell id="-S1vWL-iVzR-hxPpNCkm-53" value="包括" style="text;html=1;resizable=0;labelBackgroundColor=#ffffff;align=center;verticalAlign=middle;fontStyle=1;fontColor=#333333;;fontSize=26.666666666666657;" vertex="1" parent="-S1vWL-iVzR-hxPpNCkm-52">
          <mxGeometry x="-0.3496340869455219" relative="1" as="geometry" />
        </mxCell>
        <UserObject label="" lucidchartObjectId="KS190NkhHBdP" id="-S1vWL-iVzR-hxPpNCkm-54">
          <mxCell style="html=1;jettySize=18;whiteSpace=wrap;fontSize=11;strokeColor=#5E5E5E;strokeWidth=3;rounded=1;arcSize=32;edgeStyle=orthogonalEdgeStyle;startArrow=none;;endArrow=ERmany;endSize=10;;exitX=0.5;exitY=-0.006;exitPerimeter=0;entryX=0.5;entryY=1.002;entryPerimeter=0;" edge="1" parent="WIyWlLk6GJQsqaUBKTNV-1" source="-S1vWL-iVzR-hxPpNCkm-43" target="-S1vWL-iVzR-hxPpNCkm-41">
            <mxGeometry width="100" height="100" relative="1" as="geometry">
              <Array as="points" />
            </mxGeometry>
          </mxCell>
        </UserObject>
        <mxCell id="-S1vWL-iVzR-hxPpNCkm-55" value="项目属于类别" style="text;html=1;resizable=0;labelBackgroundColor=#ffffff;align=center;verticalAlign=middle;fontStyle=1;fontColor=#333333;;fontSize=24.999999999999993;" vertex="1" parent="-S1vWL-iVzR-hxPpNCkm-54">
          <mxGeometry x="0.17061132777121268" relative="1" as="geometry" />
        </mxCell>
        <UserObject label="" lucidchartObjectId="RS19ik03Oc~l" id="-S1vWL-iVzR-hxPpNCkm-56">
          <mxCell style="html=1;jettySize=18;whiteSpace=wrap;fontSize=11;strokeColor=#5E5E5E;strokeWidth=3;rounded=1;arcSize=32;edgeStyle=orthogonalEdgeStyle;startArrow=none;;endArrow=ERmany;endSize=10;;exitX=0.5;exitY=1.002;exitPerimeter=0;entryX=0.46;entryY=-0.002;entryPerimeter=0;" edge="1" parent="WIyWlLk6GJQsqaUBKTNV-1" source="-S1vWL-iVzR-hxPpNCkm-47" target="-S1vWL-iVzR-hxPpNCkm-41">
            <mxGeometry width="100" height="100" relative="1" as="geometry">
              <Array as="points" />
            </mxGeometry>
          </mxCell>
        </UserObject>
        <mxCell id="-S1vWL-iVzR-hxPpNCkm-57" value="项目被管理" style="text;html=1;resizable=0;labelBackgroundColor=#ffffff;align=center;verticalAlign=middle;fontStyle=1;fontColor=#333333;;fontSize=26.666666666666657;" vertex="1" parent="-S1vWL-iVzR-hxPpNCkm-56">
          <mxGeometry relative="1" as="geometry" />
        </mxCell>
        <mxCell id="-S1vWL-iVzR-hxPpNCkm-58" value="研究生参与项目认定表" style="html=1;overflow=block;blockSpacing=1;whiteSpace=wrap;swimlane;childLayout=stackLayout;horizontal=1;horizontalStack=0;resizeParent=1;resizeParentMax=0;resizeLast=0;collapsible=0;fontStyle=0;marginBottom=0;swimlaneFillColor=#ffffff;startSize=85;whiteSpace=wrap;fontSize=25;fontFamily=Open Sans;fontColor=#333333;whiteSpace=wrap;align=left;spacing=0;strokeColor=#5e5e5e;strokeOpacity=100;rounded=1;absoluteArcSize=1;arcSize=9;strokeWidth=3;" vertex="1" parent="WIyWlLk6GJQsqaUBKTNV-1">
          <mxGeometry x="700" y="1520" width="490" height="452.5" as="geometry" />
        </mxCell>
        <mxCell id="-S1vWL-iVzR-hxPpNCkm-59" value="&lt;div style=&quot;display: flex ; justify-content: center ; align-items: baseline ; font-size: 0px ; line-height: 1&quot;&gt;&lt;span style=&quot;font-size: 11px&quot;&gt;&lt;span style=&quot;font-size: 26px ; color: #333333 ; font-family: &amp;#34;liberation&amp;#34; serif&quot;&gt;学生姓名 &lt;/span&gt;&lt;span style=&quot;font-size: 27px ; color: #333333&quot;&gt;Variable characters&lt;/span&gt;&lt;span style=&quot;font-size: 26px ; color: #333333 ; font-family: &amp;#34;liberation&amp;#34; serif&quot;&gt;&lt;br&gt;&lt;/span&gt;&lt;/span&gt;&lt;/div&gt;&lt;div style=&quot;display: flex ; justify-content: center ; align-items: baseline ; font-size: 0px ; line-height: 1&quot;&gt;&lt;span style=&quot;font-size: 11px&quot;&gt;&lt;span style=&quot;font-size: 26px ; color: #333333 ; font-family: &amp;#34;liberation&amp;#34; serif&quot;&gt;学生卡号 &lt;/span&gt;&lt;span style=&quot;font-size: 27px ; color: #333333&quot;&gt;Variable characters&lt;/span&gt;&lt;span style=&quot;font-size: 26px ; color: #333333 ; font-family: &amp;#34;liberation&amp;#34; serif&quot;&gt;&lt;br&gt;&lt;/span&gt;&lt;/span&gt;&lt;/div&gt;&lt;div style=&quot;display: flex ; justify-content: center ; align-items: baseline ; font-size: 0px ; line-height: 1&quot;&gt;&lt;span style=&quot;font-size: 11px&quot;&gt;&lt;span style=&quot;font-size: 26px ; color: #333333 ; font-family: &amp;#34;liberation&amp;#34; serif&quot;&gt;学科 &lt;/span&gt;&lt;span style=&quot;font-size: 27px ; color: #333333&quot;&gt;Variable characters&lt;/span&gt;&lt;span style=&quot;font-size: 26px ; color: #333333 ; font-family: &amp;#34;liberation&amp;#34; serif&quot;&gt;&lt;br&gt;&lt;/span&gt;&lt;/span&gt;&lt;/div&gt;&lt;div style=&quot;display: flex ; justify-content: center ; align-items: baseline ; font-size: 0px ; line-height: 1&quot;&gt;&lt;span style=&quot;font-size: 11px&quot;&gt;&lt;span style=&quot;font-size: 26px ; color: #333333 ; font-family: &amp;#34;liberation&amp;#34; serif&quot;&gt;序号 &lt;/span&gt;&lt;span style=&quot;font-size: 27px ; color: #333333&quot;&gt; Integer&lt;/span&gt;&lt;span style=&quot;font-size: 26px ; color: #333333 ; font-family: &amp;#34;liberation&amp;#34; serif&quot;&gt;&lt;br&gt;&lt;/span&gt;&lt;/span&gt;&lt;/div&gt;&lt;div style=&quot;display: flex ; justify-content: center ; align-items: baseline ; font-size: 0px ; line-height: 1&quot;&gt;&lt;span style=&quot;font-size: 11px&quot;&gt;&lt;span style=&quot;font-size: 26px ; color: #333333 ; font-family: &amp;#34;liberation&amp;#34; serif&quot;&gt;项目id &lt;/span&gt;&lt;span style=&quot;font-size: 27px ; color: #333333&quot;&gt; Integer&lt;/span&gt;&lt;span style=&quot;font-size: 26px ; color: #333333 ; font-family: &amp;#34;liberation&amp;#34; serif&quot;&gt;&lt;br&gt;&lt;/span&gt;&lt;/span&gt;&lt;/div&gt;&lt;div style=&quot;display: flex ; justify-content: center ; align-items: baseline ; font-size: 0px ; line-height: 1&quot;&gt;&lt;span style=&quot;font-size: 11px&quot;&gt;&lt;span style=&quot;font-size: 26px ; color: #333333 ; font-family: &amp;#34;liberation&amp;#34; serif&quot;&gt;项目类型 &lt;/span&gt;&lt;span style=&quot;font-size: 27px ; color: #333333&quot;&gt;Variable characters&lt;/span&gt;&lt;span style=&quot;font-size: 26px ; color: #333333 ; font-family: &amp;#34;liberation&amp;#34; serif&quot;&gt;&lt;br&gt;&lt;/span&gt;&lt;/span&gt;&lt;/div&gt;&lt;div style=&quot;display: flex ; justify-content: center ; align-items: baseline ; font-size: 0px ; line-height: 1&quot;&gt;&lt;span style=&quot;font-size: 11px&quot;&gt;&lt;span style=&quot;font-size: 26px ; color: #333333 ; font-family: &amp;#34;liberation&amp;#34; serif&quot;&gt;参与项目时间 &lt;/span&gt;&lt;span style=&quot;font-size: 27px ; color: #333333&quot;&gt;Date&lt;/span&gt;&lt;span style=&quot;font-size: 26px ; color: #333333 ; font-family: &amp;#34;liberation&amp;#34; serif&quot;&gt;&lt;br&gt;&lt;/span&gt;&lt;/span&gt;&lt;/div&gt;&lt;div style=&quot;display: flex ; justify-content: center ; align-items: baseline ; font-size: 0px ; line-height: 1&quot;&gt;&lt;span style=&quot;font-size: 11px&quot;&gt;&lt;span style=&quot;font-size: 26px ; color: #333333 ; font-family: &amp;#34;liberation&amp;#34; serif&quot;&gt;承担工作角色 &lt;/span&gt;&lt;span style=&quot;font-size: 27px ; color: #333333&quot;&gt;Variable characters&lt;/span&gt;&lt;span style=&quot;font-size: 26px ; color: #333333 ; font-family: &amp;#34;liberation&amp;#34; serif&quot;&gt;&lt;br&gt;&lt;/span&gt;&lt;/span&gt;&lt;/div&gt;&lt;div style=&quot;display: flex ; justify-content: flex-start ; align-items: baseline ; font-size: 0px ; line-height: 1&quot;&gt;&lt;span style=&quot;font-size: 11px&quot;&gt;&lt;span style=&quot;font-size: 25px ; color: #000000&quot;&gt;承担工作的折合经费（万元）Double&lt;/span&gt;&lt;/span&gt;&lt;/div&gt;" style="part=1;html=1;resizeHeight=0;strokeColor=none;fillColor=none;align=center;verticalAlign=middle;spacingLeft=4;spacingRight=4;overflow=hidden;rotatable=0;points=[[0,0.5],[1,0.5]];portConstraint=eastwest;swimlaneFillColor=#ffffff;strokeOpacity=100;fontSize=26;fontColor=#333333;" vertex="1" parent="-S1vWL-iVzR-hxPpNCkm-58">
          <mxGeometry y="85" width="490" height="367.5" as="geometry" />
        </mxCell>
        <UserObject label="" lucidchartObjectId="xkY-a535h74z" id="-S1vWL-iVzR-hxPpNCkm-60">
          <mxCell style="html=1;jettySize=18;whiteSpace=wrap;fontSize=11;strokeColor=#5E5E5E;strokeWidth=3;rounded=1;arcSize=32;edgeStyle=orthogonalEdgeStyle;startArrow=none;;endArrow=ERmany;endSize=10;;exitX=-0.003;exitY=0.5;exitPerimeter=0;entryX=1.003;entryY=0.452;entryPerimeter=0;" edge="1" parent="WIyWlLk6GJQsqaUBKTNV-1" source="-S1vWL-iVzR-hxPpNCkm-66" target="-S1vWL-iVzR-hxPpNCkm-47">
            <mxGeometry width="100" height="100" relative="1" as="geometry">
              <Array as="points" />
            </mxGeometry>
          </mxCell>
        </UserObject>
        <mxCell id="-S1vWL-iVzR-hxPpNCkm-61" value="导入导师项目情况" style="text;html=1;resizable=0;labelBackgroundColor=#ffffff;align=center;verticalAlign=middle;fontStyle=1;fontColor=#333333;;fontSize=26.666666666666657;" vertex="1" parent="-S1vWL-iVzR-hxPpNCkm-60">
          <mxGeometry relative="1" as="geometry" />
        </mxCell>
        <mxCell id="-S1vWL-iVzR-hxPpNCkm-62" value="导师" style="html=1;overflow=block;blockSpacing=1;whiteSpace=wrap;swimlane;childLayout=stackLayout;horizontal=1;horizontalStack=0;resizeParent=1;resizeParentMax=0;resizeLast=0;collapsible=0;fontStyle=0;marginBottom=0;swimlaneFillColor=#ffffff;startSize=25;whiteSpace=wrap;fontSize=27;fontColor=#333333;whiteSpace=wrap;align=left;spacing=0;strokeColor=#5e5e5e;strokeOpacity=100;rounded=1;absoluteArcSize=1;arcSize=9;strokeWidth=2;" vertex="1" parent="WIyWlLk6GJQsqaUBKTNV-1">
          <mxGeometry x="145" y="325" width="405" height="505.5" as="geometry" />
        </mxCell>
        <mxCell id="-S1vWL-iVzR-hxPpNCkm-63" value="&lt;div style=&quot;display: flex; justify-content: center; text-align: center; align-items: baseline; font-size: 0; line-height: 1;&quot;&gt;&lt;span style=&quot;font-size:11px;&quot;&gt;&lt;span style=&quot;font-size:27px;color:#333333;&quot;&gt;导师id Integer&#xa;&lt;/span&gt;&lt;/span&gt;&lt;/div&gt;&lt;div style=&quot;display: flex; justify-content: center; text-align: center; align-items: baseline; font-size: 0; line-height: 1;&quot;&gt;&lt;span style=&quot;font-size:11px;&quot;&gt;&lt;span style=&quot;font-size:27px;color:#333333;&quot;&gt;导师名称 Variable characters &#xa;&lt;/span&gt;&lt;/span&gt;&lt;/div&gt;&lt;div style=&quot;display: flex; justify-content: center; text-align: center; align-items: baseline; font-size: 0; line-height: 1;&quot;&gt;&lt;span style=&quot;font-size:11px;&quot;&gt;&lt;span style=&quot;font-size:27px;color:#333333;&quot;&gt;导师工号 Variable characters &#xa;&lt;/span&gt;&lt;/span&gt;&lt;/div&gt;&lt;div style=&quot;display: flex; justify-content: center; text-align: center; align-items: baseline; font-size: 0; line-height: 1;&quot;&gt;&lt;span style=&quot;font-size:11px;&quot;&gt;&lt;span style=&quot;font-size:27px;color:#333333;&quot;&gt;导师性别 Integer&#xa;&lt;/span&gt;&lt;/span&gt;&lt;/div&gt;&lt;div style=&quot;display: flex; justify-content: center; text-align: center; align-items: baseline; font-size: 0; line-height: 1;&quot;&gt;&lt;span style=&quot;font-size:11px;&quot;&gt;&lt;span style=&quot;font-size:27px;color:#333333;&quot;&gt;出生日期 Date&#xa;&lt;/span&gt;&lt;/span&gt;&lt;/div&gt;&lt;div style=&quot;display: flex; justify-content: center; text-align: center; align-items: baseline; font-size: 0; line-height: 1;&quot;&gt;&lt;span style=&quot;font-size:11px;&quot;&gt;&lt;span style=&quot;font-size:27px;color:#333333;&quot;&gt;导师邮件 Variable characters&#xa;&lt;/span&gt;&lt;/span&gt;&lt;/div&gt;&lt;div style=&quot;display: flex; justify-content: center; text-align: center; align-items: baseline; font-size: 0; line-height: 1;&quot;&gt;&lt;span style=&quot;font-size:11px;&quot;&gt;&lt;span style=&quot;font-size:27px;color:#333333;&quot;&gt;联系方式 Variahle characters &lt;/span&gt;&lt;/span&gt;&lt;/div&gt;" style="part=1;html=1;resizeHeight=0;strokeColor=none;fillColor=none;align=left;verticalAlign=middle;spacingLeft=4;spacingRight=4;overflow=hidden;rotatable=0;points=[[0,0.5],[1,0.5]];portConstraint=eastwest;swimlaneFillColor=#ffffff;strokeOpacity=100;fontSize=27;fontColor=#333333;" vertex="1" parent="-S1vWL-iVzR-hxPpNCkm-62">
          <mxGeometry y="25" width="405" height="480.5" as="geometry" />
        </mxCell>
        <UserObject label="" lucidchartObjectId="5nY-uaVFHsnK" id="-S1vWL-iVzR-hxPpNCkm-64">
          <mxCell style="html=1;jettySize=18;whiteSpace=wrap;fontSize=11;strokeColor=#5E5E5E;strokeWidth=3;rounded=1;arcSize=32;edgeStyle=orthogonalEdgeStyle;startArrow=none;;endArrow=ERmany;endSize=10;;exitX=1.003;exitY=0.128;exitPerimeter=0;entryX=0.007;entryY=0.371;entryPerimeter=0;entryDx=0;entryDy=0;" edge="1" parent="WIyWlLk6GJQsqaUBKTNV-1" source="-S1vWL-iVzR-hxPpNCkm-62" target="-S1vWL-iVzR-hxPpNCkm-48">
            <mxGeometry width="100" height="100" relative="1" as="geometry">
              <Array as="points">
                <mxPoint x="1309" y="390" />
                <mxPoint x="1309" y="403" />
              </Array>
            </mxGeometry>
          </mxCell>
        </UserObject>
        <mxCell id="-S1vWL-iVzR-hxPpNCkm-65" value="管理项目" style="text;html=1;resizable=0;labelBackgroundColor=#ffffff;align=center;verticalAlign=middle;fontStyle=1;fontColor=#333333;;fontSize=31.666666666666657;" vertex="1" parent="-S1vWL-iVzR-hxPpNCkm-64">
          <mxGeometry x="-0.21100230908698558" relative="1" as="geometry" />
        </mxCell>
        <mxCell id="-S1vWL-iVzR-hxPpNCkm-66" value="研究生培养管理员" style="html=1;overflow=block;blockSpacing=1;whiteSpace=wrap;swimlane;childLayout=stackLayout;horizontal=1;horizontalStack=0;resizeParent=1;resizeParentMax=0;resizeLast=0;collapsible=0;fontStyle=0;marginBottom=0;swimlaneFillColor=#ffffff;startSize=25;whiteSpace=wrap;fontSize=27;fontColor=#333333;whiteSpace=wrap;align=left;spacing=0;strokeColor=#5e5e5e;strokeOpacity=100;rounded=1;absoluteArcSize=1;arcSize=9;strokeWidth=2;" vertex="1" parent="WIyWlLk6GJQsqaUBKTNV-1">
          <mxGeometry x="2065" y="190" width="405" height="505.5" as="geometry" />
        </mxCell>
        <mxCell id="-S1vWL-iVzR-hxPpNCkm-67" value="&lt;div style=&quot;display: flex; justify-content: center; text-align: center; align-items: baseline; font-size: 0; line-height: 1;&quot;&gt;&lt;span style=&quot;font-size:11px;&quot;&gt;&lt;span style=&quot;font-size:27px;color:#333333;&quot;&gt;教师id Integer&#xa;&lt;/span&gt;&lt;/span&gt;&lt;/div&gt;&lt;div style=&quot;display: flex; justify-content: center; text-align: center; align-items: baseline; font-size: 0; line-height: 1;&quot;&gt;&lt;span style=&quot;font-size:11px;&quot;&gt;&lt;span style=&quot;font-size:27px;color:#333333;&quot;&gt;教师名称 Variable characters &#xa;&lt;/span&gt;&lt;/span&gt;&lt;/div&gt;&lt;div style=&quot;display: flex; justify-content: center; text-align: center; align-items: baseline; font-size: 0; line-height: 1;&quot;&gt;&lt;span style=&quot;font-size:11px;&quot;&gt;&lt;span style=&quot;font-size:27px;color:#333333;&quot;&gt;教师工号 Variable characters &#xa;&lt;/span&gt;&lt;/span&gt;&lt;/div&gt;&lt;div style=&quot;display: flex; justify-content: center; text-align: center; align-items: baseline; font-size: 0; line-height: 1;&quot;&gt;&lt;span style=&quot;font-size:11px;&quot;&gt;&lt;span style=&quot;font-size:27px;color:#333333;&quot;&gt;教师性别 Integer&#xa;&lt;/span&gt;&lt;/span&gt;&lt;/div&gt;&lt;div style=&quot;display: flex; justify-content: center; text-align: center; align-items: baseline; font-size: 0; line-height: 1;&quot;&gt;&lt;span style=&quot;font-size:11px;&quot;&gt;&lt;span style=&quot;font-size:27px;color:#333333;&quot;&gt;出生日期 Date&#xa;&lt;/span&gt;&lt;/span&gt;&lt;/div&gt;&lt;div style=&quot;display: flex; justify-content: center; text-align: center; align-items: baseline; font-size: 0; line-height: 1;&quot;&gt;&lt;span style=&quot;font-size:11px;&quot;&gt;&lt;span style=&quot;font-size:27px;color:#333333;&quot;&gt;教师邮件 Variable characters&#xa;&lt;/span&gt;&lt;/span&gt;&lt;/div&gt;&lt;div style=&quot;display: flex; justify-content: center; text-align: center; align-items: baseline; font-size: 0; line-height: 1;&quot;&gt;&lt;span style=&quot;font-size:11px;&quot;&gt;&lt;span style=&quot;font-size:27px;color:#333333;&quot;&gt;联系方式 Variahle characters &lt;/span&gt;&lt;/span&gt;&lt;/div&gt;" style="part=1;html=1;resizeHeight=0;strokeColor=none;fillColor=none;align=left;verticalAlign=middle;spacingLeft=4;spacingRight=4;overflow=hidden;rotatable=0;points=[[0,0.5],[1,0.5]];portConstraint=eastwest;swimlaneFillColor=#ffffff;strokeOpacity=100;fontSize=27;fontColor=#333333;" vertex="1" parent="-S1vWL-iVzR-hxPpNCkm-66">
          <mxGeometry y="25" width="405" height="480.5" as="geometry" />
        </mxCell>
        <mxCell id="-S1vWL-iVzR-hxPpNCkm-68" value="项目负责人" style="html=1;overflow=block;blockSpacing=1;whiteSpace=wrap;swimlane;childLayout=stackLayout;horizontal=1;horizontalStack=0;resizeParent=1;resizeParentMax=0;resizeLast=0;collapsible=0;fontStyle=0;marginBottom=0;swimlaneFillColor=#ffffff;startSize=75;whiteSpace=wrap;fontSize=27;fontColor=#333333;whiteSpace=wrap;align=left;spacing=0;strokeColor=#5e5e5e;strokeOpacity=100;rounded=1;absoluteArcSize=1;arcSize=9;strokeWidth=2;" vertex="1" parent="WIyWlLk6GJQsqaUBKTNV-1">
          <mxGeometry x="155" y="1550" width="385" height="555.5" as="geometry" />
        </mxCell>
        <mxCell id="-S1vWL-iVzR-hxPpNCkm-69" value="&lt;div style=&quot;display: flex ; justify-content: center ; align-items: baseline ; font-size: 0px ; line-height: 1&quot;&gt;&lt;span style=&quot;font-size: 11px&quot;&gt;&lt;span style=&quot;font-size: 27px ; color: #333333&quot;&gt;教师id Integer&lt;br&gt;&lt;/span&gt;&lt;/span&gt;&lt;/div&gt;&lt;div style=&quot;display: flex ; justify-content: center ; align-items: baseline ; font-size: 0px ; line-height: 1&quot;&gt;&lt;span style=&quot;font-size: 11px&quot;&gt;&lt;span style=&quot;font-size: 27px ; color: #333333&quot;&gt;教师名称 Variable characters &lt;br&gt;&lt;/span&gt;&lt;/span&gt;&lt;/div&gt;&lt;div style=&quot;display: flex ; justify-content: center ; align-items: baseline ; font-size: 0px ; line-height: 1&quot;&gt;&lt;span style=&quot;font-size: 11px&quot;&gt;&lt;span style=&quot;font-size: 27px ; color: #333333&quot;&gt;教师工号 Variable characters &lt;br&gt;&lt;/span&gt;&lt;/span&gt;&lt;/div&gt;&lt;div style=&quot;display: flex ; justify-content: center ; align-items: baseline ; font-size: 0px ; line-height: 1&quot;&gt;&lt;span style=&quot;font-size: 11px&quot;&gt;&lt;span style=&quot;font-size: 27px ; color: #333333&quot;&gt;教师性别 Integer&lt;br&gt;&lt;/span&gt;&lt;/span&gt;&lt;/div&gt;&lt;div style=&quot;display: flex ; justify-content: center ; align-items: baseline ; font-size: 0px ; line-height: 1&quot;&gt;&lt;span style=&quot;font-size: 11px&quot;&gt;&lt;span style=&quot;font-size: 27px ; color: #333333&quot;&gt;出生日期 Date&lt;br&gt;&lt;/span&gt;&lt;/span&gt;&lt;/div&gt;&lt;div style=&quot;display: flex ; justify-content: center ; align-items: baseline ; font-size: 0px ; line-height: 1&quot;&gt;&lt;span style=&quot;font-size: 11px&quot;&gt;&lt;span style=&quot;font-size: 27px ; color: #333333&quot;&gt;教师邮件 Variable characters&lt;br&gt;&lt;/span&gt;&lt;/span&gt;&lt;/div&gt;&lt;div style=&quot;display: flex ; justify-content: center ; align-items: baseline ; font-size: 0px ; line-height: 1&quot;&gt;&lt;span style=&quot;font-size: 11px&quot;&gt;&lt;span style=&quot;font-size: 27px ; color: #333333&quot;&gt;联系方式 Variahle characters &lt;/span&gt;&lt;/span&gt;&lt;/div&gt;" style="part=1;html=1;resizeHeight=0;strokeColor=none;fillColor=none;align=center;verticalAlign=middle;spacingLeft=4;spacingRight=4;overflow=hidden;rotatable=0;points=[[0,0.5],[1,0.5]];portConstraint=eastwest;swimlaneFillColor=#ffffff;strokeOpacity=100;fontSize=27;fontColor=#333333;" vertex="1" parent="-S1vWL-iVzR-hxPpNCkm-68">
          <mxGeometry y="75" width="385" height="480.5" as="geometry" />
        </mxCell>
        <mxCell id="-S1vWL-iVzR-hxPpNCkm-70" value="学科负责人" style="html=1;overflow=block;blockSpacing=1;whiteSpace=wrap;swimlane;childLayout=stackLayout;horizontal=1;horizontalStack=0;resizeParent=1;resizeParentMax=0;resizeLast=0;collapsible=0;fontStyle=0;marginBottom=0;swimlaneFillColor=#ffffff;startSize=25;whiteSpace=wrap;fontSize=27;fontColor=#333333;whiteSpace=wrap;align=left;spacing=0;strokeColor=#5e5e5e;strokeOpacity=100;rounded=1;absoluteArcSize=1;arcSize=9;strokeWidth=2;" vertex="1" parent="WIyWlLk6GJQsqaUBKTNV-1">
          <mxGeometry x="2065" y="745" width="405" height="505.5" as="geometry" />
        </mxCell>
        <mxCell id="-S1vWL-iVzR-hxPpNCkm-71" value="&lt;div style=&quot;display: flex; justify-content: center; text-align: center; align-items: baseline; font-size: 0; line-height: 1;&quot;&gt;&lt;span style=&quot;font-size:11px;&quot;&gt;&lt;span style=&quot;font-size:27px;color:#333333;&quot;&gt;教师id Integer&#xa;&lt;/span&gt;&lt;/span&gt;&lt;/div&gt;&lt;div style=&quot;display: flex; justify-content: center; text-align: center; align-items: baseline; font-size: 0; line-height: 1;&quot;&gt;&lt;span style=&quot;font-size:11px;&quot;&gt;&lt;span style=&quot;font-size:27px;color:#333333;&quot;&gt;教师名称 Variable characters &#xa;&lt;/span&gt;&lt;/span&gt;&lt;/div&gt;&lt;div style=&quot;display: flex; justify-content: center; text-align: center; align-items: baseline; font-size: 0; line-height: 1;&quot;&gt;&lt;span style=&quot;font-size:11px;&quot;&gt;&lt;span style=&quot;font-size:27px;color:#333333;&quot;&gt;教师工号 Variable characters &#xa;&lt;/span&gt;&lt;/span&gt;&lt;/div&gt;&lt;div style=&quot;display: flex; justify-content: center; text-align: center; align-items: baseline; font-size: 0; line-height: 1;&quot;&gt;&lt;span style=&quot;font-size:11px;&quot;&gt;&lt;span style=&quot;font-size:27px;color:#333333;&quot;&gt;教师性别 Integer&#xa;&lt;/span&gt;&lt;/span&gt;&lt;/div&gt;&lt;div style=&quot;display: flex; justify-content: center; text-align: center; align-items: baseline; font-size: 0; line-height: 1;&quot;&gt;&lt;span style=&quot;font-size:11px;&quot;&gt;&lt;span style=&quot;font-size:27px;color:#333333;&quot;&gt;出生日期 Date&#xa;&lt;/span&gt;&lt;/span&gt;&lt;/div&gt;&lt;div style=&quot;display: flex; justify-content: center; text-align: center; align-items: baseline; font-size: 0; line-height: 1;&quot;&gt;&lt;span style=&quot;font-size:11px;&quot;&gt;&lt;span style=&quot;font-size:27px;color:#333333;&quot;&gt;教师邮件 Variable characters&#xa;&lt;/span&gt;&lt;/span&gt;&lt;/div&gt;&lt;div style=&quot;display: flex; justify-content: center; text-align: center; align-items: baseline; font-size: 0; line-height: 1;&quot;&gt;&lt;span style=&quot;font-size:11px;&quot;&gt;&lt;span style=&quot;font-size:27px;color:#333333;&quot;&gt;联系方式 Variahle characters &lt;/span&gt;&lt;/span&gt;&lt;/div&gt;" style="part=1;html=1;resizeHeight=0;strokeColor=none;fillColor=none;align=left;verticalAlign=middle;spacingLeft=4;spacingRight=4;overflow=hidden;rotatable=0;points=[[0,0.5],[1,0.5]];portConstraint=eastwest;swimlaneFillColor=#ffffff;strokeOpacity=100;fontSize=27;fontColor=#333333;" vertex="1" parent="-S1vWL-iVzR-hxPpNCkm-70">
          <mxGeometry y="25" width="405" height="480.5" as="geometry" />
        </mxCell>
        <UserObject label="" lucidchartObjectId="gP1-uWcaGwbg" id="-S1vWL-iVzR-hxPpNCkm-72">
          <mxCell style="html=1;jettySize=18;whiteSpace=wrap;fontSize=11;strokeColor=#5E5E5E;strokeWidth=3;rounded=1;arcSize=32;edgeStyle=orthogonalEdgeStyle;startArrow=none;;endArrow=ERmany;endSize=10;;exitX=0.5;exitY=1.003;exitPerimeter=0;entryX=0.5;entryY=-0.002;entryPerimeter=0;" edge="1" parent="WIyWlLk6GJQsqaUBKTNV-1" source="-S1vWL-iVzR-hxPpNCkm-66" target="-S1vWL-iVzR-hxPpNCkm-70">
            <mxGeometry width="100" height="100" relative="1" as="geometry">
              <Array as="points" />
            </mxGeometry>
          </mxCell>
        </UserObject>
        <mxCell id="-S1vWL-iVzR-hxPpNCkm-73" value="建立信息" style="text;html=1;resizable=0;labelBackgroundColor=#ffffff;align=center;verticalAlign=middle;fontStyle=1;fontColor=#333333;;fontSize=24.999999999999993;" vertex="1" parent="-S1vWL-iVzR-hxPpNCkm-72">
          <mxGeometry relative="1" as="geometry" />
        </mxCell>
        <UserObject label="" lucidchartObjectId="-W1-hJH8f-wI" id="-S1vWL-iVzR-hxPpNCkm-78">
          <mxCell style="html=1;jettySize=18;whiteSpace=wrap;fontSize=11;strokeColor=#5E5E5E;strokeWidth=3;rounded=1;arcSize=32;edgeStyle=orthogonalEdgeStyle;startArrow=none;;endArrow=ERmany;endSize=10;;exitX=0.5;exitY=-0.002;exitPerimeter=0;entryX=0.5;entryY=1.008;entryDx=0;entryDy=0;entryPerimeter=0;" edge="1" parent="WIyWlLk6GJQsqaUBKTNV-1" source="-S1vWL-iVzR-hxPpNCkm-68" target="-S1vWL-iVzR-hxPpNCkm-50">
            <mxGeometry width="100" height="100" relative="1" as="geometry">
              <Array as="points">
                <mxPoint x="348" y="1475" />
                <mxPoint x="348" y="1403" />
              </Array>
              <mxPoint x="348" y="1420" as="targetPoint" />
            </mxGeometry>
          </mxCell>
        </UserObject>
        <UserObject label="" lucidchartObjectId="SX1-zSBa5g1B" id="-S1vWL-iVzR-hxPpNCkm-79">
          <mxCell style="html=1;jettySize=18;whiteSpace=wrap;fontSize=11;strokeColor=#5E5E5E;strokeWidth=3;rounded=1;arcSize=32;edgeStyle=orthogonalEdgeStyle;startArrow=none;;endArrow=ERmany;endSize=10;;exitX=-0.003;exitY=0.5;exitPerimeter=0;entryX=1.003;entryY=0.559;entryPerimeter=0;" edge="1" parent="WIyWlLk6GJQsqaUBKTNV-1" source="-S1vWL-iVzR-hxPpNCkm-70" target="-S1vWL-iVzR-hxPpNCkm-41">
            <mxGeometry width="100" height="100" relative="1" as="geometry">
              <Array as="points" />
            </mxGeometry>
          </mxCell>
        </UserObject>
        <mxCell id="-S1vWL-iVzR-hxPpNCkm-80" value="管理经费要求" style="text;html=1;resizable=0;labelBackgroundColor=#ffffff;align=center;verticalAlign=middle;fontStyle=1;fontColor=#333333;;fontSize=26.666666666666657;" vertex="1" parent="-S1vWL-iVzR-hxPpNCkm-79">
          <mxGeometry relative="1" as="geometry" />
        </mxCell>
        <mxCell id="-S1vWL-iVzR-hxPpNCkm-82" value="用户关联角色" style="html=1;overflow=block;blockSpacing=1;whiteSpace=wrap;swimlane;childLayout=stackLayout;horizontal=1;horizontalStack=0;resizeParent=1;resizeParentMax=0;resizeLast=0;collapsible=0;fontStyle=0;marginBottom=0;swimlaneFillColor=#ffffff;startSize=25;whiteSpace=wrap;fontSize=27;fontColor=#333333;whiteSpace=wrap;align=left;spacing=0;strokeColor=#5e5e5e;strokeOpacity=100;rounded=1;absoluteArcSize=1;arcSize=9;strokeWidth=2;" vertex="1" parent="WIyWlLk6GJQsqaUBKTNV-1">
          <mxGeometry x="1980" y="-470" width="450" height="235" as="geometry" />
        </mxCell>
        <mxCell id="-S1vWL-iVzR-hxPpNCkm-83" value="&lt;div style=&quot;display: flex ; justify-content: center ; text-align: center ; align-items: baseline ; line-height: 1&quot;&gt;&lt;span&gt;关联角色ID Integer&lt;br&gt;角色类型 Variable characters (50)&lt;br&gt;角色ID Integer&amp;nbsp;&lt;br&gt;&lt;/span&gt;&lt;/div&gt;" style="part=1;html=1;resizeHeight=0;strokeColor=none;fillColor=none;align=left;verticalAlign=middle;spacingLeft=4;spacingRight=4;overflow=hidden;rotatable=0;points=[[0,0.5],[1,0.5]];portConstraint=eastwest;swimlaneFillColor=#ffffff;strokeOpacity=100;fontSize=27;fontColor=#333333;" vertex="1" parent="-S1vWL-iVzR-hxPpNCkm-82">
          <mxGeometry y="25" width="450" height="210" as="geometry" />
        </mxCell>
        <mxCell id="-S1vWL-iVzR-hxPpNCkm-91" style="edgeStyle=orthogonalEdgeStyle;rounded=0;orthogonalLoop=1;jettySize=auto;html=1;entryX=1;entryY=0.5;entryDx=0;entryDy=0;endArrow=ERmany;endFill=0;" edge="1" parent="WIyWlLk6GJQsqaUBKTNV-1" source="-S1vWL-iVzR-hxPpNCkm-66" target="-S1vWL-iVzR-hxPpNCkm-87">
          <mxGeometry relative="1" as="geometry">
            <mxPoint x="1990" y="-410" as="sourcePoint" />
          </mxGeometry>
        </mxCell>
        <mxCell id="-S1vWL-iVzR-hxPpNCkm-92" style="edgeStyle=orthogonalEdgeStyle;rounded=0;orthogonalLoop=1;jettySize=auto;html=1;exitX=0.5;exitY=0;exitDx=0;exitDy=0;endArrow=ERmany;endFill=0;" edge="1" parent="WIyWlLk6GJQsqaUBKTNV-1" source="-S1vWL-iVzR-hxPpNCkm-86" target="-S1vWL-iVzR-hxPpNCkm-83">
          <mxGeometry relative="1" as="geometry" />
        </mxCell>
        <mxCell id="-S1vWL-iVzR-hxPpNCkm-86" value="登录信息&lt;br/&gt;" style="html=1;overflow=block;blockSpacing=1;whiteSpace=wrap;swimlane;childLayout=stackLayout;horizontal=1;horizontalStack=0;resizeParent=1;resizeParentMax=0;resizeLast=0;collapsible=0;fontStyle=0;marginBottom=0;swimlaneFillColor=#ffffff;startSize=25;whiteSpace=wrap;fontSize=27;fontColor=#333333;whiteSpace=wrap;align=left;spacing=0;strokeColor=#5e5e5e;strokeOpacity=100;rounded=1;absoluteArcSize=1;arcSize=9;strokeWidth=2;" vertex="1" parent="WIyWlLk6GJQsqaUBKTNV-1">
          <mxGeometry x="1680" y="-170" width="450" height="235" as="geometry" />
        </mxCell>
        <mxCell id="-S1vWL-iVzR-hxPpNCkm-87" value="&lt;div style=&quot;display: flex ; justify-content: center ; align-items: baseline ; line-height: 1&quot;&gt;&lt;span&gt;&lt;span&gt;登录信息ID&lt;/span&gt;&amp;nbsp;Integer&lt;br&gt;&lt;div&gt;&lt;span&gt;用户名密码&amp;nbsp;&lt;/span&gt;&lt;span&gt;Variable characters (50)&lt;/span&gt;&lt;/div&gt;&lt;div&gt;&lt;span&gt;用户状态&amp;nbsp;&lt;/span&gt;&lt;span&gt;Variable characters (50)&lt;/span&gt;&lt;span&gt;&lt;br&gt;&lt;/span&gt;&lt;/div&gt;&lt;div&gt;&lt;span&gt;&lt;div&gt;上次登录时间&amp;nbsp;Date&lt;/div&gt;&lt;div&gt;上次登录IP&amp;nbsp;Variable characters (50)&amp;nbsp;&lt;/div&gt;&lt;/span&gt;&lt;/div&gt;&lt;/span&gt;&lt;span&gt;&lt;br&gt;&lt;/span&gt;&lt;span&gt;&lt;br&gt;&lt;/span&gt;&lt;span&gt;&lt;br&gt;&lt;/span&gt;&lt;/div&gt;" style="part=1;html=1;resizeHeight=0;strokeColor=none;fillColor=none;align=center;verticalAlign=middle;spacingLeft=4;spacingRight=4;overflow=hidden;rotatable=0;points=[[0,0.5],[1,0.5]];portConstraint=eastwest;swimlaneFillColor=#ffffff;strokeOpacity=100;fontSize=27;fontColor=#333333;" vertex="1" parent="-S1vWL-iVzR-hxPpNCkm-86">
          <mxGeometry y="25" width="450" height="210" as="geometry" />
        </mxCell>
        <mxCell id="-S1vWL-iVzR-hxPpNCkm-93" value="学科" style="html=1;overflow=block;blockSpacing=1;whiteSpace=wrap;swimlane;childLayout=stackLayout;horizontal=1;horizontalStack=0;resizeParent=1;resizeParentMax=0;resizeLast=0;collapsible=0;fontStyle=0;marginBottom=0;swimlaneFillColor=#ffffff;startSize=25;whiteSpace=wrap;fontSize=27;fontColor=#333333;whiteSpace=wrap;align=left;spacing=0;strokeColor=#5e5e5e;strokeOpacity=100;rounded=1;absoluteArcSize=1;arcSize=9;strokeWidth=2;" vertex="1" parent="WIyWlLk6GJQsqaUBKTNV-1">
          <mxGeometry x="730" y="-109.75" width="450" height="235" as="geometry" />
        </mxCell>
        <mxCell id="-S1vWL-iVzR-hxPpNCkm-94" value="&lt;div style=&quot;display: flex ; justify-content: center ; align-items: baseline ; line-height: 1&quot;&gt;&lt;span&gt;&lt;br&gt;&lt;/span&gt;&lt;span&gt;&lt;br&gt;&amp;nbsp;&lt;/span&gt;&lt;div&gt;&lt;br&gt;&lt;div&gt;&lt;span&gt;学科ID Integer&lt;/span&gt;&lt;/div&gt;&lt;div&gt;&lt;span&gt;学科名称&amp;nbsp;&lt;/span&gt;&lt;span&gt;Variable characters (50)&lt;/span&gt;&lt;/div&gt;&lt;div&gt;&lt;span&gt;学科类别&amp;nbsp;&lt;/span&gt;&lt;span&gt;Variable characters (50)&lt;/span&gt;&lt;/div&gt;&lt;div&gt;&lt;span&gt;&amp;nbsp;学科简介&amp;nbsp;&lt;/span&gt;&lt;span&gt;Variable characters (50)&lt;/span&gt;&lt;/div&gt;&lt;div&gt;&amp;nbsp;&lt;/div&gt;&lt;/div&gt;&lt;/div&gt;" style="part=1;html=1;resizeHeight=0;strokeColor=none;fillColor=none;align=left;verticalAlign=middle;spacingLeft=4;spacingRight=4;overflow=hidden;rotatable=0;points=[[0,0.5],[1,0.5]];portConstraint=eastwest;swimlaneFillColor=#ffffff;strokeOpacity=100;fontSize=27;fontColor=#333333;" vertex="1" parent="-S1vWL-iVzR-hxPpNCkm-93">
          <mxGeometry y="25" width="450" height="210" as="geometry" />
        </mxCell>
        <mxCell id="-S1vWL-iVzR-hxPpNCkm-95" style="edgeStyle=orthogonalEdgeStyle;rounded=0;orthogonalLoop=1;jettySize=auto;html=1;exitX=1;exitY=0.5;exitDx=0;exitDy=0;entryX=0;entryY=0.5;entryDx=0;entryDy=0;endArrow=ERmany;endFill=0;startArrow=ERmany;startFill=0;" edge="1" parent="WIyWlLk6GJQsqaUBKTNV-1" source="-S1vWL-iVzR-hxPpNCkm-46" target="-S1vWL-iVzR-hxPpNCkm-94">
          <mxGeometry relative="1" as="geometry" />
        </mxCell>
        <mxCell id="-S1vWL-iVzR-hxPpNCkm-96" style="edgeStyle=orthogonalEdgeStyle;rounded=0;orthogonalLoop=1;jettySize=auto;html=1;exitX=1;exitY=0.5;exitDx=0;exitDy=0;startArrow=ERmany;startFill=0;endArrow=ERmany;endFill=0;" edge="1" parent="WIyWlLk6GJQsqaUBKTNV-1" source="-S1vWL-iVzR-hxPpNCkm-69" target="-S1vWL-iVzR-hxPpNCkm-59">
          <mxGeometry relative="1" as="geometry" />
        </mxCell>
        <mxCell id="-S1vWL-iVzR-hxPpNCkm-97" style="edgeStyle=orthogonalEdgeStyle;rounded=0;orthogonalLoop=1;jettySize=auto;html=1;exitX=1;exitY=0.5;exitDx=0;exitDy=0;startArrow=ERmany;startFill=0;endArrow=ERmany;endFill=0;" edge="1" parent="WIyWlLk6GJQsqaUBKTNV-1" source="-S1vWL-iVzR-hxPpNCkm-63" target="-S1vWL-iVzR-hxPpNCkm-59">
          <mxGeometry relative="1" as="geometry">
            <Array as="points">
              <mxPoint x="590" y="590" />
              <mxPoint x="590" y="1789" />
            </Array>
          </mxGeometry>
        </mxCell>
        <mxCell id="-S1vWL-iVzR-hxPpNCkm-98" value="参与项目记录" style="html=1;overflow=block;blockSpacing=1;whiteSpace=wrap;swimlane;childLayout=stackLayout;horizontal=1;horizontalStack=0;resizeParent=1;resizeParentMax=0;resizeLast=0;collapsible=0;fontStyle=0;marginBottom=0;swimlaneFillColor=#ffffff;startSize=85;whiteSpace=wrap;fontSize=25;fontFamily=Open Sans;fontColor=#333333;whiteSpace=wrap;align=left;spacing=0;strokeColor=#5e5e5e;strokeOpacity=100;rounded=1;absoluteArcSize=1;arcSize=9;strokeWidth=3;" vertex="1" parent="WIyWlLk6GJQsqaUBKTNV-1">
          <mxGeometry x="710" y="910" width="490" height="452.5" as="geometry" />
        </mxCell>
        <mxCell id="-S1vWL-iVzR-hxPpNCkm-99" value="&lt;div style=&quot;display: flex ; justify-content: center ; align-items: baseline ; font-size: 0px ; line-height: 1&quot;&gt;&lt;span style=&quot;font-size: 11px&quot;&gt;&lt;span style=&quot;font-size: 26px&quot;&gt;参与项目ID&amp;nbsp;&lt;/span&gt;&lt;span style=&quot;font-size: 27px&quot;&gt;Integer&lt;/span&gt;&lt;/span&gt;&lt;/div&gt;&lt;div style=&quot;display: flex ; justify-content: center ; align-items: baseline ; font-size: 0px ; line-height: 1&quot;&gt;&lt;span style=&quot;font-size: 11px&quot;&gt;&lt;span style=&quot;font-size: 26px ; color: #333333 ; font-family: &amp;#34;liberation&amp;#34; serif&quot;&gt;参与工作&amp;nbsp;&lt;/span&gt;&lt;span style=&quot;font-size: 27px ; color: #333333&quot;&gt;Variable characters&lt;/span&gt;&lt;span style=&quot;font-size: 26px ; color: #333333 ; font-family: &amp;#34;liberation&amp;#34; serif&quot;&gt;&lt;br&gt;&lt;/span&gt;&lt;/span&gt;&lt;/div&gt;&lt;div style=&quot;display: flex ; justify-content: center ; align-items: baseline ; font-size: 0px ; line-height: 1&quot;&gt;&lt;span style=&quot;font-size: 11px&quot;&gt;&lt;span style=&quot;font-size: 26px ; color: #333333 ; font-family: &amp;#34;liberation&amp;#34; serif&quot;&gt;参与时间 &lt;/span&gt;&lt;span style=&quot;font-size: 27px ; color: #333333&quot;&gt;Date&lt;/span&gt;&lt;span style=&quot;font-size: 26px ; color: #333333 ; font-family: &amp;#34;liberation&amp;#34; serif&quot;&gt;&lt;br&gt;&lt;/span&gt;&lt;/span&gt;&lt;span style=&quot;font-size: 11px&quot;&gt;&lt;span style=&quot;font-size: 27px ; color: #333333&quot;&gt;&lt;br&gt;&lt;/span&gt;&lt;/span&gt;&lt;span style=&quot;font-size: 11px&quot;&gt;&lt;span style=&quot;font-size: 27px ; color: #333333&quot;&gt;&lt;br&gt;&lt;/span&gt;&lt;/span&gt;&lt;span style=&quot;font-size: 11px&quot;&gt;&lt;span style=&quot;font-size: 27px ; color: #333333&quot;&gt;&lt;br&gt;&lt;/span&gt;&lt;/span&gt;&lt;/div&gt;&lt;div style=&quot;display: flex ; justify-content: center ; align-items: baseline ; line-height: 1&quot;&gt;&lt;span style=&quot;font-size: 26px ; color: rgb(51 , 51 , 51)&quot;&gt;离开时间 &lt;/span&gt;&lt;span style=&quot;color: rgb(51 , 51 , 51)&quot;&gt;&lt;span style=&quot;font-size: 27px&quot;&gt;Date&lt;/span&gt;&lt;/span&gt;&lt;span style=&quot;font-size: 26px ; color: rgb(51 , 51 , 51)&quot;&gt;&lt;br&gt;&lt;/span&gt;&lt;/div&gt;&lt;div style=&quot;display: flex ; justify-content: flex-start ; align-items: baseline ; font-size: 0px ; line-height: 1&quot;&gt;&lt;span style=&quot;font-size: 11px&quot;&gt;&lt;span style=&quot;font-size: 25px ; color: #000000&quot;&gt;折合费用（万元）Decimal&lt;/span&gt;&lt;/span&gt;&lt;/div&gt;" style="part=1;html=1;resizeHeight=0;strokeColor=none;fillColor=none;align=center;verticalAlign=middle;spacingLeft=4;spacingRight=4;overflow=hidden;rotatable=0;points=[[0,0.5],[1,0.5]];portConstraint=eastwest;swimlaneFillColor=#ffffff;strokeOpacity=100;fontSize=26;fontColor=#333333;" vertex="1" parent="-S1vWL-iVzR-hxPpNCkm-98">
          <mxGeometry y="85" width="490" height="367.5" as="geometry" />
        </mxCell>
        <mxCell id="-S1vWL-iVzR-hxPpNCkm-100" style="edgeStyle=orthogonalEdgeStyle;rounded=0;orthogonalLoop=1;jettySize=auto;html=1;exitX=1;exitY=0.5;exitDx=0;exitDy=0;entryX=0;entryY=0.5;entryDx=0;entryDy=0;startArrow=none;startFill=0;endArrow=ERmany;endFill=0;" edge="1" parent="WIyWlLk6GJQsqaUBKTNV-1" source="-S1vWL-iVzR-hxPpNCkm-50" target="-S1vWL-iVzR-hxPpNCkm-99">
          <mxGeometry relative="1" as="geometry" />
        </mxCell>
        <mxCell id="-S1vWL-iVzR-hxPpNCkm-101" style="edgeStyle=orthogonalEdgeStyle;rounded=0;orthogonalLoop=1;jettySize=auto;html=1;exitX=1;exitY=0.5;exitDx=0;exitDy=0;entryX=0;entryY=0.5;entryDx=0;entryDy=0;startArrow=ERmany;startFill=0;endArrow=none;endFill=0;" edge="1" parent="WIyWlLk6GJQsqaUBKTNV-1" source="-S1vWL-iVzR-hxPpNCkm-99" target="-S1vWL-iVzR-hxPpNCkm-42">
          <mxGeometry relative="1" as="geometry" />
        </mxCell>
        <mxCell id="-S1vWL-iVzR-hxPpNCkm-102" value="研究生培养管理员" style="html=1;overflow=block;blockSpacing=1;whiteSpace=wrap;swimlane;childLayout=stackLayout;horizontal=1;horizontalStack=0;resizeParent=1;resizeParentMax=0;resizeLast=0;collapsible=0;fontStyle=0;marginBottom=0;swimlaneFillColor=#ffffff;startSize=25;whiteSpace=wrap;fontSize=27;fontColor=#333333;whiteSpace=wrap;align=left;spacing=0;strokeColor=#5e5e5e;strokeOpacity=100;rounded=1;absoluteArcSize=1;arcSize=9;strokeWidth=2;" vertex="1" parent="WIyWlLk6GJQsqaUBKTNV-1">
          <mxGeometry x="875" y="-600" width="405" height="505.5" as="geometry" />
        </mxCell>
        <mxCell id="-S1vWL-iVzR-hxPpNCkm-103" value="&lt;div style=&quot;display: flex; justify-content: center; text-align: center; align-items: baseline; font-size: 0; line-height: 1;&quot;&gt;&lt;span style=&quot;font-size:11px;&quot;&gt;&lt;span style=&quot;font-size:27px;color:#333333;&quot;&gt;教师id Integer&#xa;&lt;/span&gt;&lt;/span&gt;&lt;/div&gt;&lt;div style=&quot;display: flex; justify-content: center; text-align: center; align-items: baseline; font-size: 0; line-height: 1;&quot;&gt;&lt;span style=&quot;font-size:11px;&quot;&gt;&lt;span style=&quot;font-size:27px;color:#333333;&quot;&gt;教师名称 Variable characters &#xa;&lt;/span&gt;&lt;/span&gt;&lt;/div&gt;&lt;div style=&quot;display: flex; justify-content: center; text-align: center; align-items: baseline; font-size: 0; line-height: 1;&quot;&gt;&lt;span style=&quot;font-size:11px;&quot;&gt;&lt;span style=&quot;font-size:27px;color:#333333;&quot;&gt;教师工号 Variable characters &#xa;&lt;/span&gt;&lt;/span&gt;&lt;/div&gt;&lt;div style=&quot;display: flex; justify-content: center; text-align: center; align-items: baseline; font-size: 0; line-height: 1;&quot;&gt;&lt;span style=&quot;font-size:11px;&quot;&gt;&lt;span style=&quot;font-size:27px;color:#333333;&quot;&gt;教师性别 Integer&#xa;&lt;/span&gt;&lt;/span&gt;&lt;/div&gt;&lt;div style=&quot;display: flex; justify-content: center; text-align: center; align-items: baseline; font-size: 0; line-height: 1;&quot;&gt;&lt;span style=&quot;font-size:11px;&quot;&gt;&lt;span style=&quot;font-size:27px;color:#333333;&quot;&gt;出生日期 Date&#xa;&lt;/span&gt;&lt;/span&gt;&lt;/div&gt;&lt;div style=&quot;display: flex; justify-content: center; text-align: center; align-items: baseline; font-size: 0; line-height: 1;&quot;&gt;&lt;span style=&quot;font-size:11px;&quot;&gt;&lt;span style=&quot;font-size:27px;color:#333333;&quot;&gt;教师邮件 Variable characters&#xa;&lt;/span&gt;&lt;/span&gt;&lt;/div&gt;&lt;div style=&quot;display: flex; justify-content: center; text-align: center; align-items: baseline; font-size: 0; line-height: 1;&quot;&gt;&lt;span style=&quot;font-size:11px;&quot;&gt;&lt;span style=&quot;font-size:27px;color:#333333;&quot;&gt;联系方式 Variahle characters &lt;/span&gt;&lt;/span&gt;&lt;/div&gt;" style="part=1;html=1;resizeHeight=0;strokeColor=none;fillColor=none;align=left;verticalAlign=middle;spacingLeft=4;spacingRight=4;overflow=hidden;rotatable=0;points=[[0,0.5],[1,0.5]];portConstraint=eastwest;swimlaneFillColor=#ffffff;strokeOpacity=100;fontSize=27;fontColor=#333333;" vertex="1" parent="-S1vWL-iVzR-hxPpNCkm-102">
          <mxGeometry y="25" width="405" height="480.5" as="geometry" />
        </mxCell>
      </root>
    </mxGraphModel>
  </diagram>
</mxfile>
